# xmcd CD database file
#
# Track frame offsets:
#	150
#	33777
#	64767
#	94702
#	132475
#	156360
#	184472
#	217397
#	237797
#
# Disc length: 3488 seconds
#
# Revision: 4
# Processed by: cddbd v1.5.1PL0 Copyright (c) Steve Scherf et al.
# Submitted via: CDex 1.51
#
DISCID=830d9e09
DTITLE=Johnny Winter - Live In NYC '97
DYEAR=1997
DGENRE=Blues
TTITLE0=Hideaway
TTITLE1=Sen-Sa-Shun/Got My Mojo Working
TTITLE2=She Likes To Boogie Real Low
TTITLE3=Black Jack
TTITLE4=Just A Little Bit
TTITLE5=The Sun Is Shining
TTITLE6=The Sky Is Crying
TTITLE7=Johnny Guitar
TTITLE8=Drop The Bomb
EXTD=YEAR: 1997
EXTT0=
EXTT1=
EXTT2=
EXTT3=
EXTT4=
EXTT5=
EXTT6=
EXTT7=
EXTT8=
PLAYORDER=
